<?xml version="1.0" encoding="UTF-8" standalone="no"?>
<!DOCTYPE svg PUBLIC "-//W3C//DTD SVG 1.1//EN"
 "http://www.w3.org/Graphics/SVG/1.1/DTD/svg11.dtd">
<!-- Generated by graphviz version 2.49.3 (0)
 -->
<!-- Title: G Pages: 1 -->
<svg width="123pt" height="260pt"
 viewBox="0.00 0.00 122.63 260.00" xmlns="http://www.w3.org/2000/svg" xmlns:xlink="http://www.w3.org/1999/xlink">
<g id="graph0" class="graph" transform="scale(1 1) rotate(0) translate(4 256)">
<title>G</title>
<polygon fill="white" stroke="transparent" points="-4,4 -4,-256 118.63,-256 118.63,4 -4,4"/>
<!-- n0 -->
<g id="node1" class="node">
<title>n0</title>
<ellipse fill="none" stroke="black" cx="73" cy="-234" rx="27" ry="18"/>
<text text-anchor="middle" x="73" y="-230.3" font-family="Times,serif" font-size="14.00">n0</text>
</g>
<!-- n1 -->
<g id="node2" class="node">
<title>n1</title>
<ellipse fill="none" stroke="black" cx="73" cy="-162" rx="27" ry="18"/>
<text text-anchor="middle" x="73" y="-158.3" font-family="Times,serif" font-size="14.00">n1</text>
</g>
<!-- n0&#45;&gt;n1 -->
<g id="edge1" class="edge">
<title>n0&#45;&gt;n1</title>
<path fill="none" stroke="black" d="M67.16,-216.41C66.3,-208.51 66.05,-198.85 66.41,-189.94"/>
<polygon fill="black" stroke="black" points="69.9,-190.18 67.12,-179.96 62.92,-189.68 69.9,-190.18"/>
</g>
<!-- n2 -->
<g id="node3" class="node">
<title>n2</title>
<ellipse fill="none" stroke="black" cx="27" cy="-90" rx="27" ry="18"/>
<text text-anchor="middle" x="27" y="-86.3" font-family="Times,serif" font-size="14.00">n2</text>
</g>
<!-- n0&#45;&gt;n2 -->
<g id="edge2" class="edge">
<title>n0&#45;&gt;n2</title>
<path fill="none" stroke="black" d="M54.56,-220.49C44.55,-210.33 33.63,-195.23 28,-180 20.59,-159.98 18.26,-135.84 19.07,-117.75"/>
<polygon fill="black" stroke="black" points="22.57,-117.88 19.93,-107.62 15.59,-117.29 22.57,-117.88"/>
</g>
<!-- s0 -->
<g id="node4" class="node">
<title>s0</title>
<ellipse fill="none" stroke="black" cx="82" cy="-18" rx="27" ry="18"/>
<text text-anchor="middle" x="82" y="-14.3" font-family="Times,serif" font-size="14.00">s0</text>
</g>
<!-- n0&#45;&gt;s0 -->
<g id="edge3" class="edge">
<title>n0&#45;&gt;s0</title>
<path fill="none" stroke="black" d="M86.75,-218.07C94.96,-208.1 104.62,-194.25 109,-180 123.28,-133.56 106.32,-77.11 93.56,-44.89"/>
<polygon fill="black" stroke="black" points="96.67,-43.23 89.61,-35.32 90.2,-45.9 96.67,-43.23"/>
</g>
<!-- n1&#45;&gt;n0 -->
<g id="edge4" class="edge">
<title>n1&#45;&gt;n0</title>
<path fill="none" stroke="black" d="M78.88,-179.96C79.71,-187.83 79.95,-197.37 79.58,-206.19"/>
<polygon fill="black" stroke="black" points="76.07,-206.18 78.84,-216.41 83.06,-206.69 76.07,-206.18"/>
</g>
<!-- n1&#45;&gt;n2 -->
<g id="edge5" class="edge">
<title>n1&#45;&gt;n2</title>
<path fill="none" stroke="black" d="M58.14,-146.83C51.34,-138.21 43.59,-126.93 37.4,-116.77"/>
<polygon fill="black" stroke="black" points="40.27,-114.74 32.21,-107.86 34.22,-118.26 40.27,-114.74"/>
</g>
<!-- n1&#45;&gt;s0 -->
<g id="edge6" class="edge">
<title>n1&#45;&gt;s0</title>
<path fill="none" stroke="black" d="M74.09,-143.87C75.62,-119.67 78.44,-75.21 80.26,-46.39"/>
<polygon fill="black" stroke="black" points="83.77,-46.39 80.91,-36.19 76.78,-45.95 83.77,-46.39"/>
</g>
<!-- n2&#45;&gt;n0 -->
<g id="edge7" class="edge">
<title>n2&#45;&gt;n0</title>
<path fill="none" stroke="black" d="M33.11,-107.62C35.52,-125.92 37.1,-155.94 46,-180 49.63,-189.81 55.44,-199.56 60.91,-207.97"/>
<polygon fill="black" stroke="black" points="58.13,-210.12 66.58,-216.52 63.97,-206.25 58.13,-210.12"/>
</g>
<!-- n2&#45;&gt;n1 -->
<g id="edge8" class="edge">
<title>n2&#45;&gt;n1</title>
<path fill="none" stroke="black" d="M42.06,-105.42C48.82,-114.02 56.47,-125.17 62.6,-135.23"/>
<polygon fill="black" stroke="black" points="59.69,-137.18 67.74,-144.05 65.73,-133.65 59.69,-137.18"/>
</g>
<!-- n2&#45;&gt;s0 -->
<g id="edge9" class="edge">
<title>n2&#45;&gt;s0</title>
<path fill="none" stroke="black" d="M38.93,-73.81C46.21,-64.55 55.66,-52.52 63.85,-42.09"/>
<polygon fill="black" stroke="black" points="66.66,-44.18 70.09,-34.16 61.16,-39.86 66.66,-44.18"/>
</g>
</g>
</svg>
